<svg width="60" height="60" viewBox="0 0 60 60" fill="none" xmlns="http://www.w3.org/2000/svg">
<rect width="60" height="60" rx="20" fill="white"/>
<path d="M48.25 15H37V22.5H22V15H10.75C8.67969 15 7 16.6797 7 18.75V46.25C7 48.3203 8.67969 50 10.75 50H48.25C50.3203 50 52 48.3203 52 46.25V18.75C52 16.6797 50.3203 15 48.25 15ZM29.5 27.5C32.2578 27.5 34.5 29.7422 34.5 32.5C34.5 35.2578 32.2578 37.5 29.5 37.5C26.7422 37.5 24.5 35.2578 24.5 32.5C24.5 29.7422 26.7422 27.5 29.5 27.5ZM36.7891 45H22.2109C21.3984 45 20.7422 44.2188 20.9922 43.4531C21.6406 41.4531 23.5234 40 25.75 40H26.3906C27.3516 40.3984 28.3984 40.625 29.5 40.625C30.6016 40.625 31.6562 40.3984 32.6094 40H33.25C35.4688 40 37.3516 41.4453 38.0078 43.4531C38.2578 44.2188 37.6016 45 36.7891 45ZM34.5 12.5C34.5 11.1172 33.3828 10 32 10H27C25.6172 10 24.5 11.1172 24.5 12.5V20H34.5V12.5Z" fill="#007CBA"/>
</svg>
