<svg width="60" height="60" viewBox="0 0 60 60" fill="none" xmlns="http://www.w3.org/2000/svg">
<rect width="60" height="60" rx="20" fill="white"/>
<path d="M41.7188 37.4219C40.3271 37.4219 39.043 37.9102 38.0371 38.7256L27.9199 31.4062C28.0893 30.4764 28.0893 29.5236 27.9199 28.5938L38.0371 21.2744C39.043 22.0898 40.3271 22.5781 41.7188 22.5781C44.9512 22.5781 47.5781 19.9512 47.5781 16.7188C47.5781 13.4863 44.9512 10.8594 41.7188 10.8594C38.4863 10.8594 35.8594 13.4863 35.8594 16.7188C35.8594 17.2852 35.9375 17.8271 36.0889 18.3447L26.4795 25.3027C25.0537 23.4131 22.7881 22.1875 20.2344 22.1875C15.918 22.1875 12.4219 25.6836 12.4219 30C12.4219 34.3164 15.918 37.8125 20.2344 37.8125C22.7881 37.8125 25.0537 36.5869 26.4795 34.6973L36.0889 41.6553C35.9375 42.1729 35.8594 42.7197 35.8594 43.2812C35.8594 46.5137 38.4863 49.1406 41.7188 49.1406C44.9512 49.1406 47.5781 46.5137 47.5781 43.2812C47.5781 40.0488 44.9512 37.4219 41.7188 37.4219ZM41.7188 14.1797C43.1201 14.1797 44.2578 15.3174 44.2578 16.7188C44.2578 18.1201 43.1201 19.2578 41.7188 19.2578C40.3174 19.2578 39.1797 18.1201 39.1797 16.7188C39.1797 15.3174 40.3174 14.1797 41.7188 14.1797ZM20.2344 34.2969C17.8662 34.2969 15.9375 32.3682 15.9375 30C15.9375 27.6318 17.8662 25.7031 20.2344 25.7031C22.6025 25.7031 24.5312 27.6318 24.5312 30C24.5312 32.3682 22.6025 34.2969 20.2344 34.2969ZM41.7188 45.8203C40.3174 45.8203 39.1797 44.6826 39.1797 43.2812C39.1797 41.8799 40.3174 40.7422 41.7188 40.7422C43.1201 40.7422 44.2578 41.8799 44.2578 43.2812C44.2578 44.6826 43.1201 45.8203 41.7188 45.8203Z" fill="#007CBA"/>
</svg>
