<svg width="310" height="310" viewBox="0 0 310 310" fill="none" xmlns="http://www.w3.org/2000/svg">
<rect width="310" height="310" rx="20" fill="white"/>
<path d="M29.6295 11.989V11.989C23.6282 11.989 18.7632 16.854 18.7632 22.8553V23.3956H29.6295V11.989Z" fill="#007CBA"/>
<path d="M40.4958 11.989H29.6295V23.3956H40.4958V11.989Z" fill="#007CBA"/>
<path d="M51.3621 11.989H40.4958V23.3956H51.3621V11.989Z" fill="#007CBA"/>
<path d="M62.2284 11.989H51.3621V23.3956H62.2284V11.989Z" fill="#007CBA"/>
<path d="M73.0948 11.989H62.2284V23.3956H73.0948V11.989Z" fill="#007CBA"/>
<path d="M83.9611 11.989H73.0948V23.3956H83.9611V11.989Z" fill="#007CBA"/>
<path d="M94.8274 22.8553C94.8274 16.854 89.9624 11.989 83.9611 11.989V11.989V23.3956H94.8274V22.8553Z" fill="#007CBA"/>
<path d="M116.56 17.4221C116.56 14.4215 114.128 11.989 111.127 11.989V11.989C108.126 11.989 105.694 14.4215 105.694 17.4221V17.6923C105.694 20.8421 108.247 23.3956 111.397 23.3956H116.56V17.4221Z" fill="#007CBA"/>
<path d="M149.159 17.4221C149.159 14.4215 146.726 11.989 143.726 11.989V11.989C140.725 11.989 138.293 14.4215 138.293 17.4221V17.6923C138.293 20.8421 140.846 23.3956 143.996 23.3956H149.159V17.4221Z" fill="#007CBA"/>
<path d="M170.892 11.989V11.989C164.89 11.989 160.025 16.854 160.025 22.8553V23.3956H170.892V11.989Z" fill="#007CBA"/>
<path d="M181.758 11.989H170.892V23.3956H181.758V11.989Z" fill="#007CBA"/>
<path d="M192.624 11.989H181.758V23.3956H192.624V11.989Z" fill="#007CBA"/>
<path d="M203.491 17.6923C203.491 14.5424 200.937 11.989 197.787 11.989H192.624V23.3956H197.787C200.937 23.3956 203.491 20.8421 203.491 17.6923V17.6923Z" fill="#007CBA"/>
<path d="M225.223 11.989V11.989C219.222 11.989 214.357 16.854 214.357 22.8553V23.3956H225.223V11.989Z" fill="#007CBA"/>
<path d="M236.089 11.989H225.223V23.3956H236.089V11.989Z" fill="#007CBA"/>
<path d="M246.956 11.989H236.089V23.3956H246.956V11.989Z" fill="#007CBA"/>
<path d="M257.822 11.989H246.956V23.3956H257.822V11.989Z" fill="#007CBA"/>
<path d="M268.688 11.989H257.822V23.3956H268.688V11.989Z" fill="#007CBA"/>
<path d="M279.555 11.989H268.688V23.3956H279.555V11.989Z" fill="#007CBA"/>
<path d="M290.421 22.8553C290.421 16.854 285.556 11.989 279.555 11.989V11.989V23.3956H290.421V22.8553Z" fill="#007CBA"/>
<path d="M29.6295 23.3956H18.7632V34.8022H29.6295V23.3956Z" fill="#007CBA"/>
<path d="M94.8274 23.3956H83.9611L83.9611 34.8022H94.8274V23.3956Z" fill="#007CBA"/>
<path d="M127.426 34.2619C127.426 28.2606 122.561 23.3956 116.56 23.3956V23.3956V34.8022H127.426V34.2619Z" fill="#007CBA"/>
<path d="M160.025 23.3956H149.159V34.8022H160.025V23.3956Z" fill="#007CBA"/>
<path d="M170.892 23.3956H160.025V34.8022H170.892V23.3956Z" fill="#007CBA"/>
<path d="M181.758 23.3956H170.892V34.8022H181.758V23.3956Z" fill="#007CBA"/>
<path d="M225.223 23.3956H214.357V34.8022H225.223V23.3956Z" fill="#007CBA"/>
<path d="M290.421 23.3956H279.555V34.8022H290.421V23.3956Z" fill="#007CBA"/>
<path d="M29.6295 34.8022H18.7632V46.2088H29.6295V34.8022Z" fill="#007CBA"/>
<path d="M51.3621 34.8022V34.8022C45.3608 34.8022 40.4958 39.6672 40.4958 45.6685V46.2088H51.3621V34.8022Z" fill="#007CBA"/>
<path d="M62.2284 34.8022H51.3621V46.2088H62.2284V34.8022Z" fill="#007CBA"/>
<path d="M73.0948 45.6685C73.0948 39.6672 68.2297 34.8022 62.2284 34.8022V34.8022V46.2088H73.0948V45.6685Z" fill="#007CBA"/>
<path d="M94.8274 34.8022H83.9611V46.2088H94.8274V34.8022Z" fill="#007CBA"/>
<path d="M127.426 34.8022H116.56V46.2088H127.426V34.8022Z" fill="#007CBA"/>
<path d="M149.159 34.8022V34.8022C143.158 34.8022 138.293 39.6672 138.293 45.6685V46.2088H149.159V34.8022Z" fill="#007CBA"/>
<path d="M192.624 45.6685C192.624 39.6672 187.759 34.8022 181.758 34.8022V34.8022L181.758 46.2088H192.624V45.6685Z" fill="#007CBA"/>
<path d="M225.223 34.8022H214.357V46.2088H225.223V34.8022Z" fill="#007CBA"/>
<path d="M246.956 34.8022V34.8022C240.955 34.8022 236.089 39.6672 236.089 45.6685V46.2088H246.956V34.8022Z" fill="#007CBA"/>
<path d="M257.822 34.8022H246.956V46.2088H257.822V34.8022Z" fill="#007CBA"/>
<path d="M268.688 45.6685C268.688 39.6672 263.823 34.8022 257.822 34.8022V34.8022V46.2088H268.688V45.6685Z" fill="#007CBA"/>
<path d="M290.421 34.8022H279.555V46.2088H290.421V34.8022Z" fill="#007CBA"/>
<path d="M29.6295 46.2088H18.7632V57.6155H29.6295V46.2088Z" fill="#007CBA"/>
<path d="M51.3621 46.2088H40.4958V57.6155H51.3621V46.2088Z" fill="#007CBA"/>
<path d="M62.2284 46.2088H51.3621V57.6155H62.2284V46.2088Z" fill="#007CBA"/>
<path d="M73.0948 46.2088H62.2284V57.6155H73.0948V46.2088Z" fill="#007CBA"/>
<path d="M94.8274 46.2088H83.9611V57.6155H94.8274V46.2088Z" fill="#007CBA"/>
<path d="M116.56 46.2088V46.2088C110.559 46.2088 105.694 51.0738 105.694 57.0751V57.6155H116.56V46.2088Z" fill="#007CBA"/>
<path d="M138.293 46.2088H127.426V57.6155H138.293V46.2088Z" fill="#007CBA"/>
<path d="M160.025 46.2088H149.159V57.6155H160.025V46.2088Z" fill="#007CBA"/>
<path d="M170.892 57.0752C170.892 51.0739 166.027 46.2088 160.025 46.2088V46.2088V57.6155H170.892V57.0752Z" fill="#007CBA"/>
<path d="M192.624 46.2088H181.758V57.6155H192.624V46.2088Z" fill="#007CBA"/>
<path d="M203.491 57.0752C203.491 51.0739 198.626 46.2088 192.624 46.2088V46.2088V57.6155H203.491V57.0752Z" fill="#007CBA"/>
<path d="M225.223 46.2088H214.357V57.6155H225.223V46.2088Z" fill="#007CBA"/>
<path d="M246.956 46.2088H236.089V57.6155H246.956V46.2088Z" fill="#007CBA"/>
<path d="M257.822 46.2088H246.956V57.6155H257.822V46.2088Z" fill="#007CBA"/>
<path d="M268.688 46.2088H257.822V57.6155H268.688V46.2088Z" fill="#007CBA"/>
<path d="M290.421 46.2088H279.555V57.6155H290.421V46.2088Z" fill="#007CBA"/>
<path d="M29.6295 57.6155H18.7632V69.0221H29.6295V57.6155Z" fill="#007CBA"/>
<path d="M51.3621 57.6155H40.4958V58.1558C40.4958 64.1571 45.3608 69.0221 51.3621 69.0221V69.0221V57.6155Z" fill="#007CBA"/>
<path d="M62.2284 57.6155H51.3621V69.0221H62.2284V57.6155Z" fill="#007CBA"/>
<path d="M73.0948 57.6155H62.2284V69.0221V69.0221C68.2297 69.0221 73.0948 64.1571 73.0948 58.1558V57.6155Z" fill="#007CBA"/>
<path d="M94.8274 57.6155H83.9611V69.0221H94.8274V57.6155Z" fill="#007CBA"/>
<path d="M116.56 57.6155H105.694V69.0221H116.56V57.6155Z" fill="#007CBA"/>
<path d="M138.293 57.6155H127.426V69.0221H138.293V57.6155Z" fill="#007CBA"/>
<path d="M149.159 57.6155H138.293V69.0221H149.159V57.6155Z" fill="#007CBA"/>
<path d="M160.025 57.6155H149.159V69.0221H160.025V57.6155Z" fill="#007CBA"/>
<path d="M181.758 57.6155H170.892V69.0221V69.0221C176.893 69.0221 181.758 64.1571 181.758 58.1558L181.758 57.6155Z" fill="#007CBA"/>
<path d="M203.491 57.6155H192.624V63.5889C192.624 66.5896 195.057 69.0221 198.057 69.0221V69.0221C201.058 69.0221 203.491 66.5896 203.491 63.5889V57.6155Z" fill="#007CBA"/>
<path d="M225.223 57.6155H214.357V69.0221H225.223V57.6155Z" fill="#007CBA"/>
<path d="M246.956 57.6155H236.089V58.1558C236.089 64.1571 240.955 69.0221 246.956 69.0221V69.0221V57.6155Z" fill="#007CBA"/>
<path d="M257.822 57.6155H246.956V69.0221H257.822V57.6155Z" fill="#007CBA"/>
<path d="M268.688 57.6155H257.822V69.0221V69.0221C263.823 69.0221 268.688 64.1571 268.688 58.1558V57.6155Z" fill="#007CBA"/>
<path d="M290.421 57.6155H279.555V69.0221H290.421V57.6155Z" fill="#007CBA"/>
<path d="M29.6295 69.0221H18.7632V80.4287H29.6295V69.0221Z" fill="#007CBA"/>
<path d="M94.8274 69.0221H83.9611V80.4287H94.8274V69.0221Z" fill="#007CBA"/>
<path d="M116.56 69.0221H105.694V80.4287H116.56V69.0221Z" fill="#007CBA"/>
<path d="M127.426 69.0221H116.56V80.4287H127.426V69.0221Z" fill="#007CBA"/>
<path d="M138.293 69.0221H127.426V80.4287H138.293V69.0221Z" fill="#007CBA"/>
<path d="M149.159 69.0221H138.293V80.4287H149.159V69.0221Z" fill="#007CBA"/>
<path d="M170.892 69.0221H160.025V80.4287H170.892V69.0221Z" fill="#007CBA"/>
<path d="M225.223 69.0221H214.357V80.4287H225.223V69.0221Z" fill="#007CBA"/>
<path d="M290.421 69.0221H279.555V80.4287H290.421V69.0221Z" fill="#007CBA"/>
<path d="M29.6295 80.4287H18.7632V80.969C18.7632 86.9703 23.6282 91.8353 29.6295 91.8353V91.8353V80.4287Z" fill="#007CBA"/>
<path d="M40.4958 80.4287L29.6295 80.4287V91.8353H40.4958V80.4287Z" fill="#007CBA"/>
<path d="M51.3621 80.4287H40.4958V91.8353H51.3621V80.4287Z" fill="#007CBA"/>
<path d="M62.2284 80.4287H51.3621V91.8353H62.2284V80.4287Z" fill="#007CBA"/>
<path d="M73.0948 80.4287H62.2284V91.8353H73.0948V80.4287Z" fill="#007CBA"/>
<path d="M83.9611 80.4287L73.0948 80.4287V91.8353H83.9611L83.9611 80.4287Z" fill="#007CBA"/>
<path d="M94.8274 80.4287H83.9611L83.9611 91.8353V91.8353C89.9624 91.8353 94.8274 86.9703 94.8274 80.969V80.4287Z" fill="#007CBA"/>
<path d="M116.56 80.4287H105.694V91.8353H116.56V80.4287Z" fill="#007CBA"/>
<path d="M138.293 80.4287H127.426V86.4022C127.426 89.4028 129.859 91.8353 132.859 91.8353V91.8353C135.86 91.8353 138.293 89.4028 138.293 86.4022V80.4287Z" fill="#007CBA"/>
<path d="M160.025 80.4287H149.159V80.969C149.159 86.9703 154.024 91.8353 160.025 91.8353V91.8353V80.4287Z" fill="#007CBA"/>
<path d="M181.758 91.295C181.758 85.2937 176.893 80.4287 170.892 80.4287V80.4287V91.8353H181.758V91.295Z" fill="#007CBA"/>
<path d="M203.491 85.8619C203.491 82.8612 201.058 80.4287 198.057 80.4287V80.4287C195.057 80.4287 192.624 82.8612 192.624 85.8619V91.8353H197.787C200.937 91.8353 203.491 89.2819 203.491 86.132V85.8619Z" fill="#007CBA"/>
<path d="M225.223 80.4287H214.357V80.969C214.357 86.9703 219.222 91.8353 225.223 91.8353V91.8353V80.4287Z" fill="#007CBA"/>
<path d="M236.089 80.4287L225.223 80.4287V91.8353H236.089V80.4287Z" fill="#007CBA"/>
<path d="M246.956 80.4287H236.089V91.8353H246.956V80.4287Z" fill="#007CBA"/>
<path d="M257.822 80.4287H246.956V91.8353H257.822V80.4287Z" fill="#007CBA"/>
<path d="M268.688 80.4287H257.822V91.8353H268.688V80.4287Z" fill="#007CBA"/>
<path d="M279.555 80.4287L268.688 80.4287V91.8353H279.555V80.4287Z" fill="#007CBA"/>
<path d="M290.421 80.4287H279.555V91.8353V91.8353C285.556 91.8353 290.421 86.9703 290.421 80.969V80.4287Z" fill="#007CBA"/>
<path d="M116.56 91.8353H105.694V103.242H116.56V91.8353Z" fill="#007CBA"/>
<path d="M170.892 91.8353H160.025V103.242H170.892V91.8353Z" fill="#007CBA"/>
<path d="M181.758 91.8353H170.892V103.242H181.758V91.8353Z" fill="#007CBA"/>
<path d="M192.624 91.8353H181.758V103.242H192.624V91.8353Z" fill="#007CBA"/>
<path d="M29.6295 103.242V103.242C23.6282 103.242 18.7632 108.107 18.7632 114.108V114.649H29.6295V103.242Z" fill="#007CBA"/>
<path d="M40.4958 103.242H29.6295V114.649H40.4958V103.242Z" fill="#007CBA"/>
<path d="M51.3621 114.108C51.3621 108.107 46.4971 103.242 40.4958 103.242V103.242V114.649H51.3621V114.108Z" fill="#007CBA"/>
<path d="M73.0948 108.675C73.0948 105.674 70.6623 103.242 67.6616 103.242V103.242C64.661 103.242 62.2284 105.674 62.2284 108.675V108.945C62.2284 112.095 64.7819 114.649 67.9318 114.649H73.0948V108.675Z" fill="#007CBA"/>
<path d="M94.8274 108.675C94.8274 105.674 92.3949 103.242 89.3942 103.242V103.242C86.3936 103.242 83.9611 105.674 83.9611 108.675V114.649H94.8274V108.675Z" fill="#007CBA"/>
<path d="M116.56 103.242H105.694V114.649H116.56V103.242Z" fill="#007CBA"/>
<path d="M127.426 103.242H116.56V114.649H127.426V103.242Z" fill="#007CBA"/>
<path d="M138.293 114.108C138.293 108.107 133.428 103.242 127.426 103.242V103.242V114.649H138.293V114.108Z" fill="#007CBA"/>
<path d="M160.025 103.242V103.242C154.024 103.242 149.159 108.107 149.159 114.108V114.649H160.025V103.242Z" fill="#007CBA"/>
<path d="M181.758 103.242H170.892V114.649H181.758V103.242Z" fill="#007CBA"/>
<path d="M192.624 103.242H181.758V114.649H192.624V103.242Z" fill="#007CBA"/>
<path d="M203.491 103.242H192.624V114.649H203.491V103.242Z" fill="#007CBA"/>
<path d="M214.357 103.242H203.491V114.649H214.357V103.242Z" fill="#007CBA"/>
<path d="M225.223 103.242H214.357V114.649H225.223V103.242Z" fill="#007CBA"/>
<path d="M236.089 103.242H225.223V114.649H236.089V103.242Z" fill="#007CBA"/>
<path d="M246.956 103.242H236.089V114.649H246.956V103.242Z" fill="#007CBA"/>
<path d="M257.822 114.108C257.822 108.107 252.957 103.242 246.956 103.242V103.242V114.649H257.822V114.108Z" fill="#007CBA"/>
<path d="M290.421 108.675C290.421 105.674 287.989 103.242 284.988 103.242V103.242C281.987 103.242 279.555 105.674 279.555 108.675V109.215C279.555 112.216 281.987 114.649 284.988 114.649V114.649C287.989 114.649 290.421 112.216 290.421 109.215V108.675Z" fill="#007CBA"/>
<path d="M29.6295 114.649H18.7632V115.189C18.7632 121.19 23.6282 126.055 29.6295 126.055V126.055V114.649Z" fill="#007CBA"/>
<path d="M51.3621 114.649H40.4958V126.055H51.3621V114.649Z" fill="#007CBA"/>
<path d="M83.9611 114.649H73.0948V115.189C73.0948 121.19 77.9598 126.055 83.9611 126.055V126.055L83.9611 114.649Z" fill="#007CBA"/>
<path d="M105.694 114.649H94.8274V126.055H105.694V114.649Z" fill="#007CBA"/>
<path d="M116.56 114.649H105.694V126.055H116.56V114.649Z" fill="#007CBA"/>
<path d="M149.159 114.649H138.293V115.189C138.293 121.19 143.158 126.055 149.159 126.055V126.055V114.649Z" fill="#007CBA"/>
<path d="M160.025 114.649H149.159V126.055H160.025V114.649Z" fill="#007CBA"/>
<path d="M170.892 114.649H160.025V126.055H170.892V114.649Z" fill="#007CBA"/>
<path d="M192.624 114.649H181.758L181.758 115.189C181.758 121.19 186.623 126.055 192.624 126.055V126.055V114.649Z" fill="#007CBA"/>
<path d="M203.491 114.649H192.624V126.055V126.055C198.626 126.055 203.491 121.19 203.491 115.189V114.649Z" fill="#007CBA"/>
<path d="M225.223 114.649H214.357V120.622C214.357 123.623 216.789 126.055 219.79 126.055V126.055C222.791 126.055 225.223 123.623 225.223 120.622V114.649Z" fill="#007CBA"/>
<path d="M246.956 114.649H236.089V115.189C236.089 121.19 240.955 126.055 246.956 126.055V126.055V114.649Z" fill="#007CBA"/>
<path d="M257.822 114.649H246.956V126.055H257.822V114.649Z" fill="#007CBA"/>
<path d="M268.688 120.352C268.688 117.202 266.135 114.649 262.985 114.649H257.822V126.055H262.985C266.135 126.055 268.688 123.502 268.688 120.352V120.352Z" fill="#007CBA"/>
<path d="M40.4958 126.055H29.6295V137.462H40.4958V126.055Z" fill="#007CBA"/>
<path d="M51.3621 126.055H40.4958V137.462H51.3621V126.055Z" fill="#007CBA"/>
<path d="M94.8274 126.055H83.9611L83.9611 132.029C83.9611 135.029 86.3936 137.462 89.3942 137.462V137.462C92.3949 137.462 94.8274 135.029 94.8274 132.029V126.055Z" fill="#007CBA"/>
<path d="M116.56 126.055H105.694V126.596C105.694 132.597 110.559 137.462 116.56 137.462V137.462V126.055Z" fill="#007CBA"/>
<path d="M127.426 131.759C127.426 128.609 124.873 126.055 121.723 126.055H116.56V137.462H121.723C124.873 137.462 127.426 134.908 127.426 131.759V131.759Z" fill="#007CBA"/>
<path d="M170.892 126.055H160.025V137.462V137.462C166.027 137.462 170.892 132.597 170.892 126.596V126.055Z" fill="#007CBA"/>
<path d="M40.4958 137.462H29.6295V148.868H40.4958V137.462Z" fill="#007CBA"/>
<path d="M51.3621 137.462H40.4958V148.868H51.3621V137.462Z" fill="#007CBA"/>
<path d="M149.159 137.462V137.462C143.158 137.462 138.293 142.327 138.293 148.328V148.868H149.159V137.462Z" fill="#007CBA"/>
<path d="M160.025 137.462H149.159V148.868H160.025V137.462Z" fill="#007CBA"/>
<path d="M203.491 137.462V137.462C197.489 137.462 192.624 142.327 192.624 148.328V148.868H203.491V137.462Z" fill="#007CBA"/>
<path d="M214.357 148.328C214.357 142.327 209.492 137.462 203.491 137.462V137.462V148.868H214.357V148.328Z" fill="#007CBA"/>
<path d="M236.089 137.462V137.462C230.088 137.462 225.223 142.327 225.223 148.328V148.868H236.089V137.462Z" fill="#007CBA"/>
<path d="M246.956 148.328C246.956 142.327 242.091 137.462 236.089 137.462V137.462V148.868H246.956V148.328Z" fill="#007CBA"/>
<path d="M268.688 137.462V137.462C262.687 137.462 257.822 142.327 257.822 148.328V148.868H268.688V137.462Z" fill="#007CBA"/>
<path d="M279.555 137.462H268.688V148.868H279.555V137.462Z" fill="#007CBA"/>
<path d="M290.421 148.328C290.421 142.327 285.556 137.462 279.555 137.462V137.462V148.868H290.421V148.328Z" fill="#007CBA"/>
<path d="M40.4958 148.868H29.6295V149.409C29.6295 155.41 34.4945 160.275 40.4958 160.275V160.275V148.868Z" fill="#007CBA"/>
<path d="M51.3621 148.868H40.4958V160.275H51.3621V148.868Z" fill="#007CBA"/>
<path d="M94.8274 154.302C94.8274 151.301 92.3949 148.868 89.3942 148.868V148.868C86.3936 148.868 83.9611 151.301 83.9611 154.302V160.275H94.8274V154.302Z" fill="#007CBA"/>
<path d="M116.56 154.302C116.56 151.301 114.128 148.868 111.127 148.868V148.868C108.126 148.868 105.694 151.301 105.694 154.302V160.275H116.56V154.302Z" fill="#007CBA"/>
<path d="M138.293 148.868V148.868C132.291 148.868 127.426 153.734 127.426 159.735V160.275H138.293V148.868Z" fill="#007CBA"/>
<path d="M149.159 148.868H138.293V160.275V160.275C144.294 160.275 149.159 155.41 149.159 149.409V148.868Z" fill="#007CBA"/>
<path d="M170.892 159.735C170.892 153.734 166.027 148.868 160.025 148.868V148.868V149.409C160.025 155.41 164.89 160.275 170.892 160.275V160.275V159.735Z" fill="#007CBA"/>
<path d="M192.624 148.868V148.868C186.623 148.868 181.758 153.734 181.758 159.735V160.275H192.624V148.868Z" fill="#007CBA"/>
<path d="M203.491 148.868H192.624V160.275H203.491V148.868Z" fill="#007CBA"/>
<path d="M225.223 148.868H214.357V160.275H225.223V148.868Z" fill="#007CBA"/>
<path d="M257.822 148.868H246.956V160.275H257.822V148.868Z" fill="#007CBA"/>
<path d="M279.555 148.868H268.688V160.275H279.555V148.868Z" fill="#007CBA"/>
<path d="M290.421 148.868H279.555V160.275H290.421V148.868Z" fill="#007CBA"/>
<path d="M51.3621 160.275H40.4958V160.815C40.4958 166.817 45.3608 171.682 51.3621 171.682V171.682V160.275Z" fill="#007CBA"/>
<path d="M62.2284 171.141C62.2284 165.14 57.3634 160.275 51.3621 160.275V160.275V171.682H62.2284V171.141Z" fill="#007CBA"/>
<path d="M83.9611 160.275V160.275C77.9598 160.275 73.0948 165.14 73.0948 171.141V171.682H83.9611L83.9611 160.275Z" fill="#007CBA"/>
<path d="M105.694 160.275H94.8274V171.682H105.694V160.275Z" fill="#007CBA"/>
<path d="M127.426 160.275H116.56V171.682H127.426V160.275Z" fill="#007CBA"/>
<path d="M138.293 160.275H127.426V171.682H138.293V160.275Z" fill="#007CBA"/>
<path d="M181.758 160.275H170.892V171.682H181.758L181.758 160.275Z" fill="#007CBA"/>
<path d="M203.491 160.275H192.624V171.682H203.491V160.275Z" fill="#007CBA"/>
<path d="M214.357 160.275H203.491V171.682V171.682C209.492 171.682 214.357 166.817 214.357 160.815V160.275Z" fill="#007CBA"/>
<path d="M236.089 160.275H225.223V160.815C225.223 166.817 230.088 171.682 236.089 171.682V171.682V160.275Z" fill="#007CBA"/>
<path d="M246.956 160.275H236.089V171.682H246.956V160.275Z" fill="#007CBA"/>
<path d="M257.822 160.275H246.956V171.682H257.822V160.275Z" fill="#007CBA"/>
<path d="M268.688 160.275H257.822V171.682H268.688V160.275Z" fill="#007CBA"/>
<path d="M279.555 160.275H268.688V171.682H279.555V160.275Z" fill="#007CBA"/>
<path d="M290.421 160.275H279.555V171.682V171.682C285.556 171.682 290.421 166.817 290.421 160.815V160.275Z" fill="#007CBA"/>
<path d="M29.6295 177.115C29.6295 174.114 27.197 171.682 24.1963 171.682V171.682C21.1957 171.682 18.7632 174.114 18.7632 177.115V177.655C18.7632 180.656 21.1957 183.088 24.1963 183.088V183.088C27.197 183.088 29.6295 180.656 29.6295 177.655V177.115Z" fill="#007CBA"/>
<path d="M73.0948 171.682H62.2284V183.088V183.088C68.2297 183.088 73.0948 178.223 73.0948 172.222V171.682Z" fill="#007CBA"/>
<path d="M94.8274 171.682H83.9611L83.9611 177.655C83.9611 180.656 86.3936 183.088 89.3942 183.088V183.088C92.3949 183.088 94.8274 180.656 94.8274 177.655V171.682Z" fill="#007CBA"/>
<path d="M116.56 171.682H105.694V183.088H116.56V171.682Z" fill="#007CBA"/>
<path d="M127.426 171.682H116.56V183.088H127.426V171.682Z" fill="#007CBA"/>
<path d="M149.159 182.548C149.159 176.547 144.294 171.682 138.293 171.682V171.682V183.088H149.159V182.548Z" fill="#007CBA"/>
<path d="M170.892 171.682V171.682C164.89 171.682 160.025 176.547 160.025 182.548V183.088H170.892V171.682Z" fill="#007CBA"/>
<path d="M181.758 171.682H170.892V183.088H181.758V171.682Z" fill="#007CBA"/>
<path d="M203.491 171.682H192.624V177.655C192.624 180.656 195.057 183.088 198.057 183.088V183.088C201.058 183.088 203.491 180.656 203.491 177.655V171.682Z" fill="#007CBA"/>
<path d="M257.822 171.682H246.956V183.088H257.822V171.682Z" fill="#007CBA"/>
<path d="M51.3621 183.088V183.088C45.3608 183.088 40.4958 187.953 40.4958 193.955V194.495H51.3621V183.088Z" fill="#007CBA"/>
<path d="M62.2284 183.088L51.3621 183.088V194.495H62.2284V183.088Z" fill="#007CBA"/>
<path d="M116.56 183.088H105.694V183.629C105.694 189.63 110.559 194.495 116.56 194.495V194.495V183.088Z" fill="#007CBA"/>
<path d="M127.426 183.088H116.56V194.495H127.426V183.088Z" fill="#007CBA"/>
<path d="M138.293 183.088H127.426V194.495H138.293V183.088Z" fill="#007CBA"/>
<path d="M160.025 183.088H149.159V194.495H160.025V183.088Z" fill="#007CBA"/>
<path d="M170.892 183.088H160.025V194.495H170.892V183.088Z" fill="#007CBA"/>
<path d="M181.758 183.088H170.892V194.495V194.495C176.893 194.495 181.758 189.63 181.758 183.629V183.088Z" fill="#007CBA"/>
<path d="M246.956 183.088V183.088C240.955 183.088 236.089 187.953 236.089 193.955V194.495H246.956V183.088Z" fill="#007CBA"/>
<path d="M257.822 183.088H246.956V194.495H257.822V183.088Z" fill="#007CBA"/>
<path d="M29.6295 194.495H24.4665C21.3166 194.495 18.7632 197.048 18.7632 200.198V200.198C18.7632 203.348 21.3167 205.902 24.4665 205.902H29.6295V194.495Z" fill="#007CBA"/>
<path d="M40.4958 194.495H29.6295V205.902H40.4958V194.495Z" fill="#007CBA"/>
<path d="M51.3621 194.495H40.4958V205.902H51.3621V194.495Z" fill="#007CBA"/>
<path d="M62.2284 194.495H51.3621V205.902H62.2284V194.495Z" fill="#007CBA"/>
<path d="M73.0948 194.495H62.2284V205.902H73.0948V194.495Z" fill="#007CBA"/>
<path d="M83.9611 194.495H73.0948V205.902H83.9611V194.495Z" fill="#007CBA"/>
<path d="M94.8274 200.198C94.8274 197.048 92.2739 194.495 89.1241 194.495H83.9611V205.902H89.1241C92.2739 205.902 94.8274 203.348 94.8274 200.198V200.198Z" fill="#007CBA"/>
<path d="M138.293 194.495H127.426V205.902H138.293V194.495Z" fill="#007CBA"/>
<path d="M149.159 194.495H138.293V205.902H149.159V194.495Z" fill="#007CBA"/>
<path d="M160.025 194.495H149.159V205.902H160.025V194.495Z" fill="#007CBA"/>
<path d="M170.892 194.495H160.025V205.902H170.892V194.495Z" fill="#007CBA"/>
<path d="M203.491 194.495V194.495C197.489 194.495 192.624 199.36 192.624 205.361V205.902H203.491V194.495Z" fill="#007CBA"/>
<path d="M214.357 194.495H203.491V205.902H214.357V194.495Z" fill="#007CBA"/>
<path d="M225.223 194.495H214.357V205.902H225.223V194.495Z" fill="#007CBA"/>
<path d="M236.089 194.495H225.223V205.902H236.089V194.495Z" fill="#007CBA"/>
<path d="M246.956 194.495H236.089V205.902H246.956V194.495Z" fill="#007CBA"/>
<path d="M268.688 205.361C268.688 199.36 263.823 194.495 257.822 194.495V194.495V205.902H268.688V205.361Z" fill="#007CBA"/>
<path d="M290.421 199.928C290.421 196.928 287.989 194.495 284.988 194.495V194.495C281.987 194.495 279.555 196.928 279.555 199.928V205.902H284.718C287.868 205.902 290.421 203.348 290.421 200.198V199.928Z" fill="#007CBA"/>
<path d="M116.56 205.902H111.397C108.247 205.902 105.694 208.455 105.694 211.605V211.605C105.694 214.755 108.247 217.308 111.397 217.308H116.56V205.902Z" fill="#007CBA"/>
<path d="M127.426 205.902H116.56V217.308H127.426V205.902Z" fill="#007CBA"/>
<path d="M160.025 205.902H149.159V217.308H160.025V205.902Z" fill="#007CBA"/>
<path d="M181.758 211.605C181.758 208.455 179.204 205.902 176.055 205.902H170.892V211.875C170.892 214.876 173.324 217.308 176.325 217.308V217.308C179.325 217.308 181.758 214.876 181.758 211.875V211.605Z" fill="#007CBA"/>
<path d="M203.491 205.902H192.624V217.308H203.491V205.902Z" fill="#007CBA"/>
<path d="M246.956 205.902H236.089V217.308H246.956V205.902Z" fill="#007CBA"/>
<path d="M257.822 205.902H246.956V217.308H257.822V205.902Z" fill="#007CBA"/>
<path d="M279.555 205.902H268.688V217.308H279.555V205.902Z" fill="#007CBA"/>
<path d="M29.6295 217.308V217.308C23.6282 217.308 18.7632 222.173 18.7632 228.175V228.715H29.6295V217.308Z" fill="#007CBA"/>
<path d="M40.4958 217.308H29.6295V228.715H40.4958V217.308Z" fill="#007CBA"/>
<path d="M51.3621 217.308H40.4958V228.715H51.3621V217.308Z" fill="#007CBA"/>
<path d="M62.2284 217.308H51.3621V228.715H62.2284V217.308Z" fill="#007CBA"/>
<path d="M73.0948 217.308H62.2284V228.715H73.0948V217.308Z" fill="#007CBA"/>
<path d="M83.9611 217.308H73.0948V228.715H83.9611V217.308Z" fill="#007CBA"/>
<path d="M94.8274 228.175C94.8274 222.173 89.9624 217.308 83.9611 217.308V217.308V228.715H94.8274V228.175Z" fill="#007CBA"/>
<path d="M138.293 228.175C138.293 222.173 133.428 217.308 127.426 217.308V217.308V228.715H138.293V228.175Z" fill="#007CBA"/>
<path d="M160.025 217.308H149.159V228.715V228.715C155.16 228.715 160.025 223.85 160.025 217.849V217.308Z" fill="#007CBA"/>
<path d="M203.491 217.308H192.624V228.715H203.491V217.308Z" fill="#007CBA"/>
<path d="M225.223 222.741C225.223 219.741 222.791 217.308 219.79 217.308V217.308C216.789 217.308 214.357 219.741 214.357 222.741V223.282C214.357 226.282 216.789 228.715 219.79 228.715V228.715C222.791 228.715 225.223 226.282 225.223 223.282V222.741Z" fill="#007CBA"/>
<path d="M246.956 217.308H236.089V228.715H246.956V217.308Z" fill="#007CBA"/>
<path d="M257.822 217.308H246.956V228.715H257.822V217.308Z" fill="#007CBA"/>
<path d="M279.555 217.308H268.688V228.715H279.555V217.308Z" fill="#007CBA"/>
<path d="M29.6295 228.715H18.7632V240.122H29.6295V228.715Z" fill="#007CBA"/>
<path d="M94.8274 228.715H83.9611L83.9611 240.122H94.8274V228.715Z" fill="#007CBA"/>
<path d="M127.426 228.715V228.715C121.425 228.715 116.56 233.58 116.56 239.581V240.122H127.426V228.715Z" fill="#007CBA"/>
<path d="M138.293 228.715H127.426V240.122H138.293V228.715Z" fill="#007CBA"/>
<path d="M149.159 228.715H138.293V240.122V240.122C144.294 240.122 149.159 235.257 149.159 229.255V228.715Z" fill="#007CBA"/>
<path d="M192.624 228.715V228.715C186.623 228.715 181.758 233.58 181.758 239.581V240.122H192.624V228.715Z" fill="#007CBA"/>
<path d="M203.491 228.715H192.624V240.122H203.491V228.715Z" fill="#007CBA"/>
<path d="M246.956 228.715H236.089V240.122H246.956V228.715Z" fill="#007CBA"/>
<path d="M257.822 228.715H246.956V240.122H257.822V228.715Z" fill="#007CBA"/>
<path d="M268.688 228.715H257.822V240.122H268.688V228.715Z" fill="#007CBA"/>
<path d="M279.555 228.715H268.688V240.122H279.555V228.715Z" fill="#007CBA"/>
<path d="M29.6295 240.122H18.7632V251.528H29.6295V240.122Z" fill="#007CBA"/>
<path d="M51.3621 240.122V240.122C45.3608 240.122 40.4958 244.987 40.4958 250.988V251.528H51.3621V240.122Z" fill="#007CBA"/>
<path d="M62.2284 240.122H51.3621V251.528H62.2284V240.122Z" fill="#007CBA"/>
<path d="M73.0948 250.988C73.0948 244.987 68.2297 240.122 62.2284 240.122V240.122V251.528H73.0948V250.988Z" fill="#007CBA"/>
<path d="M94.8274 240.122H83.9611V251.528H94.8274V240.122Z" fill="#007CBA"/>
<path d="M116.56 240.122H111.397C108.247 240.122 105.694 242.675 105.694 245.825V245.825C105.694 248.975 108.247 251.528 111.397 251.528H116.56V240.122Z" fill="#007CBA"/>
<path d="M127.426 240.122H116.56V251.528H127.426V240.122Z" fill="#007CBA"/>
<path d="M170.892 240.122H165.729C162.579 240.122 160.025 242.675 160.025 245.825V245.825C160.025 248.975 162.579 251.528 165.729 251.528H170.892V240.122Z" fill="#007CBA"/>
<path d="M181.758 240.122H170.892V251.528H181.758L181.758 240.122Z" fill="#007CBA"/>
<path d="M192.624 240.122H181.758L181.758 251.528H192.624V240.122Z" fill="#007CBA"/>
<path d="M203.491 240.122H192.624V251.528H203.491V240.122Z" fill="#007CBA"/>
<path d="M214.357 240.122H203.491V251.528H214.357V240.122Z" fill="#007CBA"/>
<path d="M225.223 240.122H214.357V251.528H225.223V240.122Z" fill="#007CBA"/>
<path d="M236.089 240.122H225.223V251.528H236.089V240.122Z" fill="#007CBA"/>
<path d="M246.956 240.122H236.089V251.528H246.956V240.122Z" fill="#007CBA"/>
<path d="M268.688 240.122H257.822V251.528H268.688V240.122Z" fill="#007CBA"/>
<path d="M279.555 240.122H268.688V251.528H279.555V240.122Z" fill="#007CBA"/>
<path d="M29.6295 251.528H18.7632V262.935H29.6295V251.528Z" fill="#007CBA"/>
<path d="M51.3621 251.528H40.4958V262.935H51.3621V251.528Z" fill="#007CBA"/>
<path d="M62.2284 251.528H51.3621V262.935H62.2284V251.528Z" fill="#007CBA"/>
<path d="M73.0948 251.528H62.2284V262.935H73.0948V251.528Z" fill="#007CBA"/>
<path d="M94.8274 251.528H83.9611V262.935H94.8274V251.528Z" fill="#007CBA"/>
<path d="M127.426 251.528H116.56V262.935H127.426V251.528Z" fill="#007CBA"/>
<path d="M138.293 251.528H127.426V262.935H138.293V251.528Z" fill="#007CBA"/>
<path d="M149.159 262.394C149.159 256.393 144.294 251.528 138.293 251.528V251.528V262.935H149.159V262.394Z" fill="#007CBA"/>
<path d="M181.758 251.528H170.892V262.935H181.758V251.528Z" fill="#007CBA"/>
<path d="M225.223 251.528H214.357V257.502C214.357 260.502 216.789 262.935 219.79 262.935V262.935C222.791 262.935 225.223 260.502 225.223 257.502V251.528Z" fill="#007CBA"/>
<path d="M246.956 251.528H236.089V252.068C236.089 258.07 240.955 262.935 246.956 262.935V262.935V251.528Z" fill="#007CBA"/>
<path d="M257.822 251.528H246.956V262.935H257.822V251.528Z" fill="#007CBA"/>
<path d="M290.421 257.231C290.421 254.082 287.868 251.528 284.718 251.528H279.555V262.935H284.718C287.868 262.935 290.421 260.381 290.421 257.231V257.231Z" fill="#007CBA"/>
<path d="M29.6295 262.935H18.7632V274.341H29.6295V262.935Z" fill="#007CBA"/>
<path d="M51.3621 262.935H40.4958V263.475C40.4958 269.476 45.3608 274.341 51.3621 274.341V274.341V262.935Z" fill="#007CBA"/>
<path d="M62.2284 262.935H51.3621V274.341H62.2284V262.935Z" fill="#007CBA"/>
<path d="M73.0948 262.935H62.2284V274.341V274.341C68.2297 274.341 73.0948 269.476 73.0948 263.475V262.935Z" fill="#007CBA"/>
<path d="M94.8274 262.935H83.9611V274.341H94.8274V262.935Z" fill="#007CBA"/>
<path d="M116.56 262.935V262.935C110.559 262.935 105.694 267.8 105.694 273.801V274.341H116.56V262.935Z" fill="#007CBA"/>
<path d="M127.426 262.935H116.56V274.341H127.426V262.935Z" fill="#007CBA"/>
<path d="M149.159 262.935H138.293V274.341H149.159V262.935Z" fill="#007CBA"/>
<path d="M181.758 262.935H170.892V274.341H181.758V262.935Z" fill="#007CBA"/>
<path d="M192.624 262.935H181.758V274.341H192.624V262.935Z" fill="#007CBA"/>
<path d="M203.491 273.801C203.491 267.8 198.626 262.935 192.624 262.935V262.935V274.341H203.491V273.801Z" fill="#007CBA"/>
<path d="M268.688 262.935H257.822V274.341H268.688V262.935Z" fill="#007CBA"/>
<path d="M279.555 262.935H268.688V274.341H279.555V262.935Z" fill="#007CBA"/>
<path d="M29.6295 274.341H18.7632V285.748H29.6295V274.341Z" fill="#007CBA"/>
<path d="M94.8274 274.341H83.9611V285.748H94.8274V274.341Z" fill="#007CBA"/>
<path d="M116.56 274.341H105.694V285.748H116.56V274.341Z" fill="#007CBA"/>
<path d="M127.426 274.341H116.56V285.748H127.426V274.341Z" fill="#007CBA"/>
<path d="M149.159 274.341H138.293V285.748H149.159V274.341Z" fill="#007CBA"/>
<path d="M170.892 274.341V274.341C164.89 274.341 160.025 279.206 160.025 285.208V285.748H170.892V274.341Z" fill="#007CBA"/>
<path d="M181.758 274.341H170.892V285.748H181.758V274.341Z" fill="#007CBA"/>
<path d="M203.491 274.341H192.624V285.748H203.491V274.341Z" fill="#007CBA"/>
<path d="M214.357 285.208C214.357 279.206 209.492 274.341 203.491 274.341V274.341V285.748H214.357V285.208Z" fill="#007CBA"/>
<path d="M246.956 274.341V274.341C240.955 274.341 236.089 279.206 236.089 285.208V285.748H246.956V274.341Z" fill="#007CBA"/>
<path d="M257.822 274.341H246.956V285.748H257.822V274.341Z" fill="#007CBA"/>
<path d="M268.688 274.341H257.822V285.748H268.688V274.341Z" fill="#007CBA"/>
<path d="M279.555 274.341H268.688V285.748H279.555V274.341Z" fill="#007CBA"/>
<path d="M29.6295 285.748H18.7632V286.288C18.7632 292.29 23.6282 297.155 29.6295 297.155V297.155V285.748Z" fill="#007CBA"/>
<path d="M40.4958 285.748H29.6295V297.155H40.4958V285.748Z" fill="#007CBA"/>
<path d="M51.3621 285.748H40.4958V297.155H51.3621V285.748Z" fill="#007CBA"/>
<path d="M62.2284 285.748H51.3621V297.155H62.2284V285.748Z" fill="#007CBA"/>
<path d="M73.0948 285.748H62.2284V297.155H73.0948V285.748Z" fill="#007CBA"/>
<path d="M83.9611 285.748H73.0948V297.155H83.9611L83.9611 285.748Z" fill="#007CBA"/>
<path d="M94.8274 285.748H83.9611L83.9611 297.155V297.155C89.9624 297.155 94.8274 292.29 94.8274 286.288V285.748Z" fill="#007CBA"/>
<path d="M116.56 285.748H105.694V291.722C105.694 294.722 108.126 297.155 111.127 297.155V297.155C114.128 297.155 116.56 294.722 116.56 291.722V285.748Z" fill="#007CBA"/>
<path d="M138.293 285.748H127.426V286.288C127.426 292.29 132.291 297.155 138.293 297.155V297.155V285.748Z" fill="#007CBA"/>
<path d="M149.159 285.748H138.293V297.155H149.159V285.748Z" fill="#007CBA"/>
<path d="M160.025 285.748H149.159V297.155V297.155C155.16 297.155 160.025 292.29 160.025 286.288V285.748Z" fill="#007CBA"/>
<path d="M181.758 285.748H170.892V286.288C170.892 292.29 175.757 297.155 181.758 297.155V297.155V285.748Z" fill="#007CBA"/>
<path d="M192.624 285.748H181.758V297.155V297.155C187.759 297.155 192.624 292.29 192.624 286.288V285.748Z" fill="#007CBA"/>
<path d="M225.223 291.451C225.223 288.302 222.67 285.748 219.52 285.748H214.357V291.722C214.357 294.722 216.789 297.155 219.79 297.155V297.155C222.791 297.155 225.223 294.722 225.223 291.722V291.451Z" fill="#007CBA"/>
<path d="M246.956 285.748H236.089V286.288C236.089 292.29 240.955 297.155 246.956 297.155V297.155V285.748Z" fill="#007CBA"/>
<path d="M257.822 285.748H246.956V297.155H257.822V285.748Z" fill="#007CBA"/>
<path d="M268.688 285.748H257.822V297.155H268.688V285.748Z" fill="#007CBA"/>
<path d="M279.555 285.748H268.688V297.155H279.555V285.748Z" fill="#007CBA"/>
<path d="M290.421 291.451C290.421 288.302 287.868 285.748 284.718 285.748H279.555V297.155H284.718C287.868 297.155 290.421 294.601 290.421 291.451V291.451Z" fill="#007CBA"/>
</svg>
