<svg width="60" height="60" viewBox="0 0 60 60" fill="none" xmlns="http://www.w3.org/2000/svg">
<rect width="60" height="60" rx="20" fill="white"/>
<path d="M30 12.5C18.9531 12.5 10 19.7734 10 28.75C10 32.625 11.6719 36.1719 14.4531 38.9609C13.4766 42.8984 10.2109 46.4062 10.1719 46.4453C10 46.625 9.95313 46.8906 10.0547 47.125C10.1562 47.3594 10.375 47.5 10.625 47.5C15.8047 47.5 19.6875 45.0156 21.6094 43.4844C24.1641 44.4453 27 45 30 45C41.0469 45 50 37.7266 50 28.75C50 19.7734 41.0469 12.5 30 12.5ZM20.0156 33.75H19.0625C18.7187 33.75 18.4375 33.4688 18.4375 33.125V31.875C18.4375 31.5312 18.7187 31.25 19.0625 31.25H20.0234C20.4922 31.25 20.8359 30.9766 20.8359 30.7344C20.8359 30.6328 20.7734 30.5234 20.6719 30.4375L18.9609 28.9688C18.2969 28.4063 17.9219 27.6016 17.9219 26.7734C17.9219 25.1094 19.4063 23.7578 21.2344 23.7578H22.1875C22.5313 23.7578 22.8125 24.0391 22.8125 24.3828V25.6328C22.8125 25.9766 22.5313 26.2578 22.1875 26.2578H21.2266C20.7578 26.2578 20.4141 26.5312 20.4141 26.7734C20.4141 26.875 20.4766 26.9844 20.5781 27.0703L22.2891 28.5391C22.9531 29.1016 23.3281 29.9062 23.3281 30.7344C23.3359 32.3984 21.8437 33.75 20.0156 33.75ZM35 33.125C35 33.4688 34.7188 33.75 34.375 33.75H33.125C32.7812 33.75 32.5 33.4688 32.5 33.125V27.7969L30.5625 32.1563C30.3359 32.6172 29.6719 32.6172 29.4453 32.1563L27.5 27.7969V33.125C27.5 33.4688 27.2188 33.75 26.875 33.75H25.625C25.2812 33.75 25 33.4688 25 33.125V25C25 24.3125 25.5625 23.75 26.25 23.75H27.5C27.9766 23.75 28.4063 24.0156 28.6172 24.4375L30 27.2031L31.3828 24.4375C31.5938 24.0156 32.0312 23.75 32.5 23.75H33.75C34.4375 23.75 35 24.3125 35 25V33.125ZM38.7734 33.75H37.8125C37.4687 33.75 37.1875 33.4688 37.1875 33.125V31.875C37.1875 31.5312 37.4687 31.25 37.8125 31.25H38.7734C39.2422 31.25 39.5859 30.9766 39.5859 30.7344C39.5859 30.6328 39.5234 30.5234 39.4219 30.4375L37.7109 28.9688C37.0469 28.4063 36.6719 27.6016 36.6719 26.7734C36.6719 25.1094 38.1562 23.7578 39.9844 23.7578H40.9375C41.2813 23.7578 41.5625 24.0391 41.5625 24.3828V25.6328C41.5625 25.9766 41.2813 26.2578 40.9375 26.2578H39.9766C39.5078 26.2578 39.1641 26.5312 39.1641 26.7734C39.1641 26.875 39.2266 26.9844 39.3281 27.0703L41.0391 28.5391C41.7031 29.1016 42.0781 29.9062 42.0781 30.7344C42.0859 32.3984 40.6016 33.75 38.7734 33.75Z" fill="#007CBA"/>
</svg>
