<svg width="60" height="60" viewBox="0 0 60 60" fill="none" xmlns="http://www.w3.org/2000/svg">
<rect width="60" height="60" rx="20" fill="white"/>
<path d="M42.5 46.25H42.2875C17.725 44.8375 14.2375 24.1125 13.75 17.7875C13.7107 17.2957 13.7689 16.801 13.9211 16.3318C14.0733 15.8625 14.3167 15.4279 14.6372 15.0528C14.9576 14.6778 15.349 14.3696 15.7888 14.146C16.2285 13.9225 16.7081 13.7879 17.2 13.75H24.0875C24.5882 13.7495 25.0775 13.8994 25.492 14.1802C25.9066 14.461 26.2272 14.8598 26.4125 15.325L28.3125 20C28.4954 20.4544 28.5408 20.9526 28.4431 21.4326C28.3453 21.9126 28.1086 22.3533 27.7625 22.7L25.1 25.3875C25.5159 27.7509 26.6477 29.9296 28.3424 31.6287C30.037 33.3278 32.2127 34.4654 34.575 34.8875L37.2875 32.2C37.6394 31.8577 38.0842 31.6266 38.5666 31.5354C39.049 31.4443 39.5475 31.4972 40 31.6875L44.7125 33.575C45.1707 33.7661 45.5615 34.0893 45.8354 34.5033C46.1092 34.9174 46.2535 35.4036 46.25 35.9V42.5C46.25 43.4946 45.8549 44.4484 45.1517 45.1517C44.4484 45.8549 43.4946 46.25 42.5 46.25ZM17.5 16.25C17.1685 16.25 16.8505 16.3817 16.6161 16.6161C16.3817 16.8505 16.25 17.1685 16.25 17.5V17.6C16.825 25 20.5125 42.5 42.425 43.75C42.5892 43.7601 42.7538 43.7378 42.9094 43.6842C43.0649 43.6306 43.2084 43.5468 43.3315 43.4376C43.4546 43.3285 43.5549 43.1961 43.6267 43.048C43.6986 42.9 43.7404 42.7393 43.75 42.575V35.9L39.0375 34.0125L35.45 37.575L34.85 37.5C23.975 36.1375 22.5 25.2625 22.5 25.15L22.425 24.55L25.975 20.9625L24.1 16.25H17.5Z" fill="#007CBA"/>
</svg>
